<?xml version="1.0" standalone="no"?>
<!DOCTYPE svg PUBLIC "-//W3C//DTD SVG 20010904//EN"
 "http://www.w3.org/TR/2001/REC-SVG-20010904/DTD/svg10.dtd">
<svg version="1.0" xmlns="http://www.w3.org/2000/svg"
 width="512.000000pt" height="512.000000pt" viewBox="0 0 512.000000 512.000000"
 preserveAspectRatio="xMidYMid meet">
<metadata>
Created by potrace 1.14, written by Peter Selinger 2001-2017
</metadata>
<g transform="translate(0.000000,512.000000) scale(0.100000,-0.100000)"
fill="#000000" stroke="none">
<path d="M2496 5113 c-35 -9 -94 -52 -119 -85 -39 -52 -48 -97 -49 -242 0 -75
-2 -136 -5 -136 -2 0 -61 39 -130 86 -155 106 -192 123 -263 124 -75 0 -152
-45 -195 -114 -25 -42 -30 -59 -30 -116 0 -57 5 -75 30 -115 32 -52 65 -77
407 -303 98 -64 178 -119 178 -122 0 -5 -121 -79 -145 -89 -5 -2 -26 -14 -45
-26 -19 -12 -91 -54 -160 -92 -215 -121 -565 -324 -575 -334 -5 -5 -16 -9 -26
-9 -14 0 -17 19 -24 136 -3 75 -8 148 -10 163 -2 14 -6 76 -10 136 -3 61 -8
134 -11 164 -14 165 -153 265 -306 219 -53 -16 -122 -78 -142 -130 -21 -52
-21 -192 0 -375 2 -24 3 -43 1 -43 -2 0 -55 29 -117 65 -63 36 -132 70 -154
76 -97 26 -213 -29 -263 -125 -19 -37 -26 -136 -12 -174 26 -69 63 -104 188
-177 l124 -74 -157 -77 c-180 -89 -219 -121 -243 -203 -30 -105 9 -209 101
-266 43 -26 59 -30 120 -30 71 1 72 1 366 146 l295 145 3 -278 c1 -153 1 -403
0 -556 l-3 -278 -295 145 -295 146 -71 0 c-61 0 -77 -4 -120 -30 -30 -19 -60
-49 -79 -79 -26 -43 -30 -59 -30 -121 0 -66 3 -77 34 -122 41 -60 37 -58 225
-150 l149 -74 -129 -77 c-111 -66 -133 -84 -159 -126 -26 -43 -30 -59 -30
-120 1 -79 13 -111 67 -165 38 -39 75 -57 135 -66 61 -9 110 8 234 80 60 36
112 65 115 65 3 0 3 -17 0 -37 -6 -48 -18 -239 -18 -295 0 -63 28 -123 78
-166 93 -82 215 -82 308 0 52 45 75 98 81 182 6 99 17 248 20 286 2 19 7 91
11 160 4 69 9 128 10 133 1 4 2 9 3 11 0 3 65 -33 144 -78 78 -46 162 -94 187
-108 52 -29 317 -183 340 -197 8 -6 35 -21 60 -34 25 -14 87 -50 139 -80 l93
-55 -153 -103 c-85 -57 -206 -138 -269 -180 -132 -88 -151 -106 -181 -173 -64
-147 51 -317 215 -317 69 0 86 7 238 109 73 49 138 91 143 94 7 5 11 -39 11
-132 1 -165 13 -209 78 -268 96 -89 240 -82 327 15 53 58 62 98 63 255 0 92 4
135 11 130 5 -3 64 -42 130 -86 154 -104 185 -118 253 -117 175 2 282 183 202
340 -27 53 -54 74 -340 265 l-253 168 79 45 c44 25 131 76 194 113 236 139
666 386 683 393 15 5 17 0 18 -41 0 -26 2 -63 4 -82 1 -19 5 -82 9 -140 3 -58
8 -132 11 -165 3 -33 7 -94 10 -135 8 -109 23 -148 76 -202 55 -55 108 -73
184 -63 92 12 168 73 195 159 12 36 10 150 -5 334 -6 65 -2 71 30 48 19 -13
63 -37 175 -99 185 -101 398 67 335 266 -22 70 -55 106 -150 161 -44 25 -87
51 -95 56 -8 6 -25 15 -37 22 -13 6 -23 14 -23 17 1 3 67 38 148 76 80 39 161
83 180 99 120 105 95 307 -47 381 -41 21 -113 28 -160 15 -22 -6 -168 -73
-323 -150 l-283 -139 -3 279 c-1 154 -1 406 0 560 l3 279 275 -136 c151 -74
291 -141 311 -148 45 -16 124 -13 169 7 147 64 181 269 63 380 -15 14 -93 58
-173 97 -79 39 -148 75 -153 80 -4 4 42 36 104 71 62 35 125 76 140 92 162
170 -4 449 -228 383 -24 -7 -90 -40 -147 -74 -57 -34 -107 -61 -110 -61 -4 0
-4 24 -2 53 16 187 18 300 6 341 -36 129 -188 200 -310 145 -54 -24 -75 -43
-105 -89 -31 -49 -36 -82 -50 -305 -4 -55 -8 -120 -10 -145 -2 -24 -7 -96 -10
-160 -4 -63 -8 -116 -10 -118 -2 -3 -93 48 -306 172 -20 12 -177 102 -348 201
-171 98 -311 182 -311 185 1 3 123 86 272 185 189 126 280 192 300 219 111
153 2 366 -187 366 -64 0 -97 -16 -247 -117 -76 -51 -140 -93 -143 -93 -2 0
-4 64 -4 143 1 154 -7 187 -57 246 -15 18 -44 41 -66 52 -39 20 -135 32 -172
22z"/>
</g>
</svg>
